<?xml version="1.0" standalone="no"?>
<svg viewBox="0 0 200 200" xmlns="http://www.w3.org/2000/svg">
  <path fill="#8B72B6" d="M42.5,-67.7C53.4,-59,59.6,-44.5,67.6,-30C75.5,-15.5,85.2,-0.9,85.7,14C86.1,28.9,77.3,44.1,66,57.3C54.7,70.4,40.9,81.4,26.3,82.4C11.7,83.4,-3.7,74.3,-17.4,66.8C-31,59.3,-42.9,53.4,-55.4,44.8C-67.9,36.2,-81.1,24.9,-81.6,12.6C-82,0.3,-69.8,-13,-61.3,-26.5C-52.8,-39.9,-48,-53.6,-38.4,-62.9C-28.8,-72.2,-14.4,-77.2,0.7,-78.3C15.7,-79.3,31.5,-76.4,42.5,-67.7Z" transform="translate(100 100)" />
</svg>
