<?xml version="1.0" standalone="no"?>
<svg viewBox="0 0 200 200" xmlns="http://www.w3.org/2000/svg">
  <path fill="#8B72B6" d="M41.7,-64.3C55.7,-55.9,69.7,-47.1,76.5,-34.3C83.4,-21.5,83,-4.8,79.9,11C76.8,26.7,71,41.6,61.2,53.2C51.4,64.9,37.7,73.3,22.7,78C7.7,82.8,-8.6,83.9,-22.8,79C-36.9,74.2,-48.9,63.5,-58.8,51.3C-68.6,39.2,-76.4,25.6,-77.8,11.6C-79.2,-2.5,-74.3,-17.1,-68.7,-32.2C-63.1,-47.3,-56.7,-62.9,-45.2,-72.3C-33.6,-81.8,-16.8,-85.1,-1.5,-82.8C13.9,-80.6,27.7,-72.7,41.7,-64.3Z" transform="translate(100 100)" />
</svg>
