<?xml version="1.0" standalone="no"?>
<svg viewBox="0 0 200 200" xmlns="http://www.w3.org/2000/svg">
  <path fill="#8B72B6" d="M24.1,-44.9C31.3,-37.6,37.1,-31.2,42.8,-23.9C48.5,-16.6,53.9,-8.3,59.8,3.4C65.6,15.1,71.9,30.1,69.8,43.5C67.6,56.9,57,68.6,43.9,70.6C30.9,72.6,15.4,64.9,1.3,62.6C-12.8,60.3,-25.7,63.5,-36,59.9C-46.3,56.4,-54.2,46.1,-60.7,35C-67.2,23.9,-72.4,11.9,-68.9,2C-65.4,-7.9,-53.2,-15.8,-47.5,-28.3C-41.8,-40.8,-42.5,-57.9,-35.7,-65.3C-28.8,-72.8,-14.4,-70.6,-3,-65.5C8.5,-60.3,16.9,-52.2,24.1,-44.9Z" transform="translate(100 100)" />
</svg>
